# xmcd CD Database Entry
#
# Track frame offsets:
# 150
# 22777
# 43208
# 66477
# 76589
# 104182
# 146270
# 168274
# 200944
# 240919
#
# Disc length: 3772 seconds
#
# Revision: 2
# Processed by: cddbd v1.4PL0 Copyright (c) Steve Scherf et al.
# Submitted via: tcd 2.0b
#
DISCID=830eba0a
DTITLE=Gary Moore - Live at Monsters of Rock
DYEAR=1900
DGENRE=
TTITLE0=Shapes of Things
TTITLE1=Wishing Well
TTITLE2=Rectify
TTITLE3=Guitar Intro
TTITLE4=Stand Up
TTITLE5=Just Can't Let Go
TTITLE6=Walking by Myself
TTITLE7=Don't Believe a Word
TTITLE8=Out in the Fields
TTITLE9=Parisienne Walkways
EXTD=
EXTT0=
EXTT1=
EXTT2=
EXTT3=
EXTT4=
EXTT5=
EXTT6=
EXTT7=
EXTT8=
EXTT9=
PLAYORDER=
